PathFileType	4	(X/Y/Z)	C:\Documents and Settings\user\My Documents\MotionFiles\BioEngCompLab_Data\Delaware\Subject 2\Static1_smoothed.trc
DataRate	CameraRate	NumFrames	NumMarkers	Units	OrigDataRate	OrigDataStartFrame	OrigNumFrames
60.00	60.00	       4	49	mm	60.00	76	       300
Frame#	Time	R.ASIS			L.ASIS			V.Sacral			R.Thigh.Upper			R.Thigh.Front			R.Thigh.Rear			L.Thigh.Upper			L.Thigh.Front			L.Thigh.Rear			R.Knee.Lat			R.Knee.Med			L.Knee.Lat			L.Knee.Med			R.Shank.Upper			R.Shank.Front			R.Shank.Rear			L.Shank.Upper			L.Shank.Front			L.Shank.Rear			R.Ankle.Lat			R.Ankle.Med			L.Ankle.Lat			L.Ankle.Med			R.Heel			R.Midfoot.Sup			R.Midfoot.Lat			R.Toe.Tip			L.Heel			L.Midfoot.Sup			L.Midfoot.Lat			L.Toe.Tip			Sternum			R.Acromium			L.Acromium			R.Bicep			L.Bicep			R.Elbow			L.Elbow			R.Wrist.Med			R.Wrist.Lat			L.Wrist.Med			L.Wrist.Lat			R.Toe.Lat			R.Toe.Med			L.Toe.Lat			L.Toe.Med			R.Temple			L.Temple			Top.Head			
		X1	Y1	Z1	X2	Y2	Z2	X3	Y3	Z3	X4	Y4	Z4	X5	Y5	Z5	X6	Y6	Z6	X7	Y7	Z7	X8	Y8	Z8	X9	Y9	Z9	X10	Y10	Z10	X11	Y11	Z11	X12	Y12	Z12	X13	Y13	Z13	X14	Y14	Z14	X15	Y15	Z15	X16	Y16	Z16	X17	Y17	Z17	X18	Y18	Z18	X19	Y19	Z19	X20	Y20	Z20	X21	Y21	Z21	X22	Y22	Z22	X23	Y23	Z23	X24	Y24	Z24	X25	Y25	Z25	X26	Y26	Z26	X27	Y27	Z27	X28	Y28	Z28	X29	Y29	Z29	X30	Y30	Z30	X31	Y31	Z31	X32	Y32	Z32	X33	Y33	Z33	X34	Y34	Z34	X35	Y35	Z35	X36	Y36	Z36	X37	Y37	Z37	X38	Y38	Z38	X39	Y39	Z39	X40	Y40	Z40	X41	Y41	Z41	X42	Y42	Z42	X43	Y43	Z43	X44	Y44	Z44	X45	Y45	Z45	X46	Y46	Z46	X47	Y47	Z47	X48	Y48	Z48	X49	Y49	Z49	

76	1.250000	624.200070	1069.880130	165.297070	618.008180	1062.135380	-88.419560	423.373870	1065.346190	33.422360	545.921330	761.711060	218.041840	612.284060	697.232180	158.482790	512.185970	666.682130	212.780930	553.585750	763.839480	-146.632520	615.843020	689.704410	-75.451600	531.514950	634.600160	-134.629410	492.699100	543.862430	199.254460	499.176910	526.811950	72.198570	487.075960	548.222900	-119.491470	517.462460	525.014280	-3.418800	484.076290	461.744480	210.609880	532.311710	389.976620	166.554110	470.193450	379.379790	219.437990	462.195590	451.293760	-137.445210	526.384700	371.289180	-100.100070	439.091550	382.897430	-143.334340	431.617950	104.539410	205.670560	451.061800	115.169330	122.034080	420.885650	104.407190	-126.296330	445.107420	109.415320	-37.423290	366.836120	75.287120	161.593550	510.086150	72.081760	129.336850	479.799740	64.800770	228.019200	647.943910	64.327080	166.722350	352.547700	71.505240	-90.090700	495.069980	66.066910	-49.962620	478.613770	54.241490	-151.576260	634.649170	62.417540	-93.771920	615.237920	1457.658690	27.004630	477.062010	1571.277590	209.267550	463.633450	1566.529420	-131.800260	442.277220	1490.144290	385.317720	440.712370	1482.486570	-335.831630	435.436070	1470.197140	486.743320	448.026520	1469.657230	-428.369080	548.131650	1525.783330	735.422850	481.596160	1538.076050	733.671570	580.351810	1497.174800	-662.913940	509.501100	1505.837890	-676.564880	573.801640	49.026210	242.128010	579.349610	39.310230	129.508590	555.441470	36.606490	-170.900050	572.386900	43.660180	-58.341210	581.569700	1702.276730	101.051670	590.181150	1713.785770	-40.773460	610.246830	1807.016600	22.813200	
77	1.267000	624.075010	1069.859500	165.259900	617.979610	1062.141480	-88.395000	423.350370	1065.356200	33.433500	545.925660	761.712590	218.041810	612.226930	697.207030	158.437440	512.186040	666.682130	212.780930	553.575680	763.845760	-146.671370	615.821290	689.686650	-75.465030	531.515010	634.600770	-134.629120	492.709810	543.865840	199.270220	499.130800	526.833980	72.224910	486.831970	548.231020	-119.404730	517.465270	525.020200	-3.435630	484.068420	461.759000	210.618230	532.296390	389.958250	166.579420	470.177800	379.401000	219.442140	462.139770	451.315220	-137.436690	526.338500	371.260350	-100.086080	438.890720	382.909180	-143.247480	431.621000	104.542300	205.690050	451.199310	115.174510	122.040390	420.866550	104.405190	-126.292500	445.123810	109.489070	-37.602320	366.881620	75.320870	161.588790	510.096980	72.098340	129.335450	479.746980	64.838830	227.961550	647.997070	64.335210	166.741390	352.436130	71.456470	-89.980060	495.068420	66.067830	-49.962560	478.622250	54.240110	-151.576640	634.649170	62.417540	-93.771920	615.213440	1457.687010	26.988280	477.058200	1571.288330	209.267880	463.595120	1566.534670	-131.812470	442.289030	1490.172490	385.291260	440.696260	1482.486080	-335.827910	435.448090	1470.156250	486.730470	448.043880	1469.661740	-428.373750	548.180660	1525.859250	735.325440	481.693120	1538.102660	733.649720	580.508730	1497.197020	-662.938660	509.598660	1505.831050	-676.504460	573.822630	49.014280	242.126020	579.317020	39.337860	129.513320	555.436400	36.626900	-170.889340	571.429990	43.191180	-58.780240	581.570860	1702.203740	101.052090	590.118840	1713.746830	-40.691450	610.312380	1807.006590	22.887160	
78	1.283000	623.942380	1069.861330	165.185410	617.936890	1062.170900	-88.369450	423.313390	1065.353640	33.448370	545.920290	761.701660	218.052630	612.121640	697.188480	158.372010	512.186040	666.682130	212.780910	553.555360	763.860170	-146.742100	615.791260	689.651000	-75.480030	531.506350	634.606570	-134.629810	492.720090	543.875980	199.272160	499.075960	526.860170	72.256240	486.713260	548.234620	-119.373730	517.467350	525.024960	-3.449220	484.075590	461.782960	210.638080	532.286990	389.948030	166.591950	470.165010	379.413880	219.448320	462.084260	451.328160	-137.431110	526.279300	371.223970	-100.093810	438.783570	382.930630	-143.195390	431.633300	104.530040	205.696990	451.316220	115.176540	122.039650	420.846650	104.409600	-126.287670	445.157410	109.537700	-37.673720	366.928040	75.338750	161.575910	510.099640	72.103450	129.335210	479.720980	64.857380	227.896650	647.995000	64.334760	166.740570	352.295840	71.385990	-89.855510	495.065220	66.069760	-49.962440	478.616180	54.219330	-151.589000	634.649170	62.417540	-93.771920	615.190860	1457.719240	26.970630	477.056520	1571.292110	209.267870	463.555050	1566.539060	-131.825450	442.345730	1490.194580	385.276210	440.688810	1482.472530	-335.829620	435.448330	1470.054570	486.704960	448.061040	1469.666380	-428.378300	548.245910	1525.862550	735.243410	481.734340	1538.103640	733.648620	580.640140	1497.205320	-662.949650	509.649080	1505.812990	-676.444890	573.806760	49.023310	242.127530	579.313230	39.347850	129.515820	555.429140	36.664840	-170.869050	570.674190	42.836950	-58.994210	581.586850	1702.144900	101.061790	590.192020	1713.685420	-40.694780	610.380860	1806.988770	22.974350	
79	1.300000	623.823910	1069.880490	165.100330	617.881530	1062.212890	-88.340900	423.266240	1065.358030	33.470460	545.901060	761.674190	218.077700	611.992490	697.191220	158.296330	512.186040	666.682130	212.780910	553.510500	763.878050	-146.821060	615.763310	689.617610	-75.493900	531.484680	634.620000	-134.632050	492.700260	543.872680	199.257870	499.031100	526.881650	72.281890	486.684300	548.230900	-119.375710	517.462770	525.025570	-3.452160	484.077820	461.794620	210.647340	532.286930	389.951050	166.582760	470.152400	379.406590	219.449780	462.044160	451.331020	-137.429890	526.202090	371.186550	-100.119410	438.844700	382.936100	-143.221770	431.653050	104.503170	205.686860	451.372920	115.173520	122.027860	420.815030	104.418330	-126.279780	445.192110	109.526800	-37.571220	366.941500	75.345890	161.572780	510.098510	72.102690	129.335450	479.731320	64.869960	227.866740	647.960570	64.330160	166.728680	352.211910	71.319850	-89.813660	495.062680	66.071270	-49.962340	478.609130	54.188020	-151.607540	634.649170	62.417540	-93.771920	615.176390	1457.752200	26.955410	477.056180	1571.292600	209.267320	463.520840	1566.539670	-131.829010	442.422700	1490.213750	385.292690	440.687380	1482.453370	-335.833890	435.430760	1469.928830	486.676450	448.077970	1469.671020	-428.382780	548.344790	1525.817990	735.189760	481.762050	1538.088500	733.656490	580.740110	1497.204100	-662.937740	509.691160	1505.785520	-676.364010	573.778380	49.039440	242.130220	579.339660	39.334400	129.514600	555.422360	36.711330	-170.843170	570.635310	42.842070	-58.836210	581.609190	1702.095090	101.068980	590.369380	1713.612920	-40.773690	610.441280	1806.966190	23.059430	
